Coordinates
version=1
nRows=60
nColumns=12
inDegrees=yes

Units are S.I. units (second, meters, Newtons, ...)
Angles are in degrees

endheader
time	SC_y	SC_z	SC_x	AC_y	AC_z	AC_x	GH_y	GH_z	GH_yy	EL_x	PS_y
       0.0              -26.96         -4.104          1.691          38.77          6.744          -2.11         -146.1          74.05          119.8           92.6          117.4
   0.01621              -26.96         -4.099          1.698          38.77          6.742          -2.11         -146.1          74.04          119.8           92.6          117.4
   0.03242              -26.96         -4.094          1.706          38.77          6.739          -2.11         -146.1          74.03          119.8           92.6          117.4
   0.04862              -26.97         -4.088          1.714          38.77          6.736          -2.11         -146.1          74.02          119.8           92.6          117.4
   0.06483              -26.97         -4.081          1.723          38.77          6.733          -2.11         -146.1          74.01          119.8           92.6          117.4
   0.08104              -26.97         -4.075          1.732          38.78          6.729         -2.111         -146.0           74.0          119.8          92.61          117.4
   0.09725              -26.98         -4.067          1.743          38.78          6.725         -2.111         -146.0          73.99          119.9          92.61          117.4
    0.1135              -26.98          -4.06          1.753          38.78          6.721         -2.111         -146.0          73.98          119.9          92.61          117.4
    0.1297              -26.98         -4.051          1.765          38.78          6.717         -2.111         -146.0          73.97          119.9          92.61          117.4
    0.1459              -26.99         -4.043          1.777          38.79          6.713         -2.111         -145.9          73.96          119.9          92.61          117.4
    0.1621              -26.99         -4.033           1.79          38.79          6.708         -2.111         -145.9          73.94          119.9          92.62          117.4
    0.1783              -26.99         -4.023          1.805          38.79          6.703         -2.112         -145.9          73.93          119.9          92.62          117.4
    0.1945               -27.0         -4.012           1.82           38.8          6.697         -2.112         -145.8          73.91          119.9          92.62          117.4
    0.2107               -27.0           -4.0          1.837           38.8          6.691         -2.112         -145.8          73.89          119.9          92.62          117.4
    0.2269              -27.01         -3.987          1.855          38.81          6.684         -2.112         -145.7          73.87          119.9          92.63          117.4
    0.2431              -27.01         -3.973          1.874          38.81          6.677         -2.112         -145.7          73.85          119.9          92.63          117.3
    0.2593              -27.02         -3.958          1.896          38.82          6.669         -2.113         -145.6          73.83          119.9          92.63          117.3
    0.2755              -27.03         -3.941          1.919          38.82          6.661         -2.113         -145.6          73.81          119.9          92.64          117.3
    0.2917              -27.03         -3.923          1.944          38.83          6.651         -2.113         -145.5          73.78          120.0          92.64          117.3
     0.308              -27.04         -3.903          1.972          38.84          6.641         -2.114         -145.5          73.75          120.0          92.64          117.3
    0.3242              -27.05         -3.882          2.002          38.84           6.63         -2.114         -145.4          73.72          120.0          92.65          117.3
    0.3404              -27.06         -3.858          2.036          38.85          6.618         -2.115         -145.3          73.68          120.0          92.65          117.3
    0.3566              -27.07         -3.831          2.073          38.86          6.604         -2.115         -145.2          73.64          120.0          92.66          117.3
    0.3728              -27.08         -3.802          2.114          38.87          6.589         -2.116         -145.1           73.6          120.1          92.67          117.3
     0.389               -27.1          -3.77          2.159          38.88          6.572         -2.116         -145.0          73.55          120.1          92.67          117.3
    0.4052              -27.11         -3.733           2.21           38.9          6.554         -2.117         -144.9           73.5          120.1          92.68          117.3
    0.4214              -27.13         -3.693          2.267          38.91          6.533         -2.118         -144.8          73.44          120.1          92.69          117.3
    0.4376              -27.15         -3.647          2.331          38.93          6.509         -2.119         -144.6          73.37          120.2           92.7          117.3
    0.4538              -27.17         -3.595          2.403          38.94          6.483          -2.12         -144.5          73.29          120.2          92.71          117.2
      0.47              -27.19         -3.537          2.485          38.96          6.453         -2.121         -144.3          73.21          120.3          92.72          117.2
    0.4862              -27.22          -3.47          2.579          38.99          6.418         -2.122         -144.0          73.11          120.3          92.74          117.2
    0.5025              -27.25         -3.393          2.686          39.01          6.379         -2.123         -143.8          72.99          120.4          92.75          117.2
    0.5187              -27.29         -3.304           2.81          39.05          6.333         -2.125         -143.5          72.86          120.4          92.77          117.2
    0.5349              -27.33         -3.201          2.955          39.08           6.28         -2.127         -143.2          72.71          120.5           92.8          117.1
    0.5511              -27.38          -3.08          3.123          39.12          6.218         -2.129         -142.8          72.53          120.6          92.82          117.1
    0.5673              -27.44         -2.938          3.322          39.17          6.145         -2.132         -142.3          72.32          120.7          92.85          117.1
    0.5835              -27.51         -2.769          3.559          39.23          6.058         -2.135         -141.7          72.07          120.9          92.89          117.0
    0.5997              -27.59         -2.566          3.842           39.3          5.954         -2.139         -141.1          71.77          121.0          92.94          116.9
    0.6159              -27.69         -2.321          4.185          39.39          5.828         -2.144         -140.2           71.4          121.2          92.99          116.9
    0.6321              -27.82         -2.022          4.604          39.49          5.674         -2.149         -139.3          70.96          121.4          93.05          116.8
    0.6483              -27.97         -1.652          5.121          39.62          5.485         -2.156         -138.0          70.41          121.7          93.13          116.7
    0.6645              -28.16         -1.192          5.765          39.78          5.248         -2.165         -136.5          69.73          122.1          93.24          116.6
    0.6807               -28.4        -0.6112          6.577          39.98           4.95         -2.176         -134.6          68.86          122.5          93.36          116.4
    0.6969               -28.7         0.1267           7.61          40.24           4.57          -2.19         -132.2          67.77          123.1          93.52          116.2
    0.7132              -29.09          1.071          8.931          40.57          4.085         -2.207         -129.1          66.37          123.8          93.73          115.9
    0.7294              -29.59          2.283          10.63          40.99          3.462          -2.23         -125.1          64.57          124.7          93.99          115.6
    0.7456              -30.22          3.831          12.79          41.53          2.667         -2.259         -120.0          62.27          125.9          94.33          115.1
    0.7618              -31.02          5.778          15.52          42.21          1.667         -2.296         -113.5          59.38          127.4          94.76          114.6
     0.778               -32.0           8.15          18.83          43.04         0.4477          -2.34         -105.7          55.86          129.3          95.27          113.9
    0.7942              -33.13           10.9          22.68          43.99        -0.9652         -2.392         -96.63          51.78          131.4          95.87          113.1
    0.8104              -34.35          13.88          26.85          45.03         -2.495         -2.448         -86.81          47.36          133.7          96.52          112.2
    0.8266              -35.58          16.85          31.01          46.07         -4.025         -2.504         -76.99          42.94          136.0          97.17          111.4
    0.8428              -36.71           19.6          34.86          47.03         -5.438         -2.556         -67.92          38.86          138.1          97.77          110.6
     0.859              -37.68          21.98          38.18          47.85         -6.657           -2.6         -60.09          35.34          139.9          98.29          109.9
    0.8752              -38.48          23.92           40.9          48.53         -7.657         -2.637         -53.67          32.45          141.4          98.72          109.4
    0.8914              -39.12          25.47          43.07          49.07         -8.453         -2.666         -48.56          30.15          142.6          99.05          108.9
    0.9077              -39.62          26.68          44.76          49.49         -9.075         -2.689         -44.56          28.36          143.5          99.32          108.6
    0.9239               -40.0          27.63          46.08          49.82         -9.561         -2.706         -41.45          26.95          144.3          99.52          108.3
    0.9401              -40.31          28.37          47.12          50.08          -9.94          -2.72         -39.01          25.86          144.8          99.69          108.1
    0.9563              -40.55          28.95          47.93          50.28         -10.24         -2.731          -37.1           25.0          145.3          99.81          107.9
